<?xml version="1.0" encoding="UTF-8" standalone="no"?>
<!-- Created with Inkscape (http://www.inkscape.org/) -->

<svg
   version="1.1"
   id="svg2"
   xml:space="preserve"
   width="528"
   height="384"
   viewBox="0 0 528 384"
   sodipodi:docname="intermarriage.svg"
   inkscape:version="1.1 (c4e8f9ed74, 2021-05-24)"
   inkscape:export-filename="/home/bobbyho/Researches/intermarriage_1973/graphs/intermarriage.png"
   inkscape:export-xdpi="150"
   inkscape:export-ydpi="150"
   xmlns:inkscape="http://www.inkscape.org/namespaces/inkscape"
   xmlns:sodipodi="http://sodipodi.sourceforge.net/DTD/sodipodi-0.dtd"
   xmlns="http://www.w3.org/2000/svg"
   xmlns:svg="http://www.w3.org/2000/svg"><defs
     id="defs6" /><sodipodi:namedview
     id="namedview4"
     pagecolor="#ffffff"
     bordercolor="#666666"
     borderopacity="1.0"
     inkscape:pageshadow="2"
     inkscape:pageopacity="0.0"
     inkscape:pagecheckerboard="0"
     showgrid="false"
     inkscape:zoom="2.0698581"
     inkscape:cx="232.8662"
     inkscape:cy="194.69934"
     inkscape:window-width="1920"
     inkscape:window-height="1048"
     inkscape:window-x="0"
     inkscape:window-y="32"
     inkscape:window-maximized="1"
     inkscape:current-layer="g8" /><g
     id="g8"
     inkscape:groupmode="layer"
     inkscape:label="intermarriage"
     transform="matrix(0.01650667,0,0,-0.01650667,0,384)"><path
       d="M 3158,3670 H 31184"
       style="fill:none;stroke:#eaf2f3;stroke-width:69.816;stroke-linecap:butt;stroke-linejoin:miter;stroke-miterlimit:10;stroke-dasharray:none;stroke-opacity:1"
       id="path14" /><path
       d="M 3158,7134 H 31184"
       style="fill:none;stroke:#eaf2f3;stroke-width:69.816;stroke-linecap:butt;stroke-linejoin:miter;stroke-miterlimit:10;stroke-dasharray:none;stroke-opacity:1"
       id="path16" /><path
       d="M 3158,10599 H 31184"
       style="fill:none;stroke:#eaf2f3;stroke-width:69.816;stroke-linecap:butt;stroke-linejoin:miter;stroke-miterlimit:10;stroke-dasharray:none;stroke-opacity:1"
       id="path18" /><path
       d="M 3158,14064 H 31184"
       style="fill:none;stroke:#eaf2f3;stroke-width:69.816;stroke-linecap:butt;stroke-linejoin:miter;stroke-miterlimit:10;stroke-dasharray:none;stroke-opacity:1"
       id="path20" /><path
       d="M 3158,17529 H 31184"
       style="fill:none;stroke:#eaf2f3;stroke-width:69.816;stroke-linecap:butt;stroke-linejoin:miter;stroke-miterlimit:10;stroke-dasharray:none;stroke-opacity:1"
       id="path22" /><path
       d="M 3158,20993 H 31184"
       style="fill:none;stroke:#eaf2f3;stroke-width:69.816;stroke-linecap:butt;stroke-linejoin:miter;stroke-miterlimit:10;stroke-dasharray:none;stroke-opacity:1"
       id="path24" /><path
       d="M 11771,3158 V 22457"
       style="fill:none;stroke:#c10534;stroke-width:69.816;stroke-linecap:butt;stroke-linejoin:miter;stroke-miterlimit:10;stroke-dasharray:none;stroke-opacity:1"
       id="path26" /><path
       d="m 3491,18435 c 0,98.256 79.7439,178 178,178 98.2561,0 178,-79.744 178,-178 0,-98.256 -79.7439,-178 -178,-178 -98.2561,0 -178,79.744 -178,178"
       style="fill:#1a476f;fill-opacity:1;fill-rule:nonzero;stroke:#1a476f;stroke-width:69.816;stroke-linecap:butt;stroke-linejoin:miter;stroke-miterlimit:10;stroke-dasharray:none;stroke-opacity:1"
       id="path28" /><path
       d="m 4841,19658 c 0,98.256 79.7441,178 178,178 98.2559,0 178,-79.744 178,-178 0,-98.256 -79.7441,-178 -178,-178 -98.2559,0 -178,79.744 -178,178"
       style="fill:#1a476f;fill-opacity:1;fill-rule:nonzero;stroke:#1a476f;stroke-width:69.816;stroke-linecap:butt;stroke-linejoin:miter;stroke-miterlimit:10;stroke-dasharray:none;stroke-opacity:1"
       id="path30" /><path
       d="m 6192,20873 c 0,98.256 79.7441,178 178,178 98.2559,0 178,-79.744 178,-178 0,-98.256 -79.7441,-178 -178,-178 -98.2559,0 -178,79.744 -178,178"
       style="fill:#1a476f;fill-opacity:1;fill-rule:nonzero;stroke:#1a476f;stroke-width:69.816;stroke-linecap:butt;stroke-linejoin:miter;stroke-miterlimit:10;stroke-dasharray:none;stroke-opacity:1"
       id="path32" /><path
       d="m 7542,21230 c 0,98.256 79.7441,178 178,178 98.2559,0 178,-79.744 178,-178 0,-98.256 -79.7441,-178 -178,-178 -98.2559,0 -178,79.744 -178,178"
       style="fill:#1a476f;fill-opacity:1;fill-rule:nonzero;stroke:#1a476f;stroke-width:69.816;stroke-linecap:butt;stroke-linejoin:miter;stroke-miterlimit:10;stroke-dasharray:none;stroke-opacity:1"
       id="path34" /><path
       d="m 8892,21933 c 0,98.256 79.7441,178 178,178 98.2559,0 178,-79.744 178,-178 0,-98.256 -79.7441,-178 -178,-178 -98.2559,0 -178,79.744 -178,178"
       style="fill:#1a476f;fill-opacity:1;fill-rule:nonzero;stroke:#1a476f;stroke-width:69.816;stroke-linecap:butt;stroke-linejoin:miter;stroke-miterlimit:10;stroke-dasharray:none;stroke-opacity:1"
       id="path36" /><path
       d="m 10242,21945 c 0,98.256 79.744,178 178,178 98.256,0 178,-79.744 178,-178 0,-98.256 -79.744,-178 -178,-178 -98.256,0 -178,79.744 -178,178"
       style="fill:#1a476f;fill-opacity:1;fill-rule:nonzero;stroke:#1a476f;stroke-width:69.816;stroke-linecap:butt;stroke-linejoin:miter;stroke-miterlimit:10;stroke-dasharray:none;stroke-opacity:1"
       id="path38" /><path
       d="m 11592,21185 c 0,98.256 79.744,178 178,178 98.256,0 178,-79.744 178,-178 0,-98.256 -79.744,-178 -178,-178 -98.256,0 -178,79.744 -178,178"
       style="fill:#1a476f;fill-opacity:1;fill-rule:nonzero;stroke:#1a476f;stroke-width:69.816;stroke-linecap:butt;stroke-linejoin:miter;stroke-miterlimit:10;stroke-dasharray:none;stroke-opacity:1"
       id="path40" /><path
       d="m 12942,20601 c 0,98.256 79.744,178 178,178 98.256,0 178,-79.744 178,-178 0,-98.256 -79.744,-178 -178,-178 -98.256,0 -178,79.744 -178,178"
       style="fill:#1a476f;fill-opacity:1;fill-rule:nonzero;stroke:#1a476f;stroke-width:69.816;stroke-linecap:butt;stroke-linejoin:miter;stroke-miterlimit:10;stroke-dasharray:none;stroke-opacity:1"
       id="path42" /><path
       d="m 14292,19257 c 0,98.256 79.744,178 178,178 98.256,0 178,-79.744 178,-178 0,-98.256 -79.744,-178 -178,-178 -98.256,0 -178,79.744 -178,178"
       style="fill:#1a476f;fill-opacity:1;fill-rule:nonzero;stroke:#1a476f;stroke-width:69.816;stroke-linecap:butt;stroke-linejoin:miter;stroke-miterlimit:10;stroke-dasharray:none;stroke-opacity:1"
       id="path44" /><path
       d="m 15643,17742 c 0,98.256 79.744,178 178,178 98.256,0 178,-79.744 178,-178 0,-98.256 -79.744,-178 -178,-178 -98.256,0 -178,79.744 -178,178"
       style="fill:#1a476f;fill-opacity:1;fill-rule:nonzero;stroke:#1a476f;stroke-width:69.816;stroke-linecap:butt;stroke-linejoin:miter;stroke-miterlimit:10;stroke-dasharray:none;stroke-opacity:1"
       id="path46" /><path
       d="m 16993,15779 c 0,98.256 79.744,178 178,178 98.256,0 178,-79.744 178,-178 0,-98.256 -79.744,-178 -178,-178 -98.256,0 -178,79.744 -178,178"
       style="fill:#1a476f;fill-opacity:1;fill-rule:nonzero;stroke:#1a476f;stroke-width:69.816;stroke-linecap:butt;stroke-linejoin:miter;stroke-miterlimit:10;stroke-dasharray:none;stroke-opacity:1"
       id="path48" /><path
       d="m 18343,13625 c 0,98.256 79.744,178 178,178 98.256,0 178,-79.744 178,-178 0,-98.256 -79.744,-178 -178,-178 -98.256,0 -178,79.744 -178,178"
       style="fill:#1a476f;fill-opacity:1;fill-rule:nonzero;stroke:#1a476f;stroke-width:69.816;stroke-linecap:butt;stroke-linejoin:miter;stroke-miterlimit:10;stroke-dasharray:none;stroke-opacity:1"
       id="path50" /><path
       d="m 19693,11983 c 0,98.256 79.744,178 178,178 98.256,0 178,-79.744 178,-178 0,-98.256 -79.744,-178 -178,-178 -98.256,0 -178,79.744 -178,178"
       style="fill:#1a476f;fill-opacity:1;fill-rule:nonzero;stroke:#1a476f;stroke-width:69.816;stroke-linecap:butt;stroke-linejoin:miter;stroke-miterlimit:10;stroke-dasharray:none;stroke-opacity:1"
       id="path52" /><path
       d="m 21043,10479 c 0,98.256 79.744,178 178,178 98.256,0 178,-79.744 178,-178 0,-98.256 -79.744,-178 -178,-178 -98.256,0 -178,79.744 -178,178"
       style="fill:#1a476f;fill-opacity:1;fill-rule:nonzero;stroke:#1a476f;stroke-width:69.816;stroke-linecap:butt;stroke-linejoin:miter;stroke-miterlimit:10;stroke-dasharray:none;stroke-opacity:1"
       id="path54" /><path
       d="m 22393,9537 c 0,98.2559 79.744,178 178,178 98.256,0 178,-79.7441 178,-178 0,-98.2559 -79.744,-178 -178,-178 -98.256,0 -178,79.7441 -178,178"
       style="fill:#1a476f;fill-opacity:1;fill-rule:nonzero;stroke:#1a476f;stroke-width:69.816;stroke-linecap:butt;stroke-linejoin:miter;stroke-miterlimit:10;stroke-dasharray:none;stroke-opacity:1"
       id="path56" /><path
       d="m 23743,8035 c 0,98.2559 79.744,178 178,178 98.256,0 178,-79.7441 178,-178 0,-98.2559 -79.744,-178 -178,-178 -98.256,0 -178,79.7441 -178,178"
       style="fill:#1a476f;fill-opacity:1;fill-rule:nonzero;stroke:#1a476f;stroke-width:69.816;stroke-linecap:butt;stroke-linejoin:miter;stroke-miterlimit:10;stroke-dasharray:none;stroke-opacity:1"
       id="path58" /><path
       d="m 25093,5398 c 0,98.2559 79.744,178 178,178 98.256,0 178,-79.7441 178,-178 0,-98.2559 -79.744,-178 -178,-178 -98.256,0 -178,79.7441 -178,178"
       style="fill:#1a476f;fill-opacity:1;fill-rule:nonzero;stroke:#1a476f;stroke-width:69.816;stroke-linecap:butt;stroke-linejoin:miter;stroke-miterlimit:10;stroke-dasharray:none;stroke-opacity:1"
       id="path60" /><path
       d="m 26444,3885 c 0,98.2561 79.744,178 178,178 98.256,0 178,-79.7439 178,-178 0,-98.2561 -79.744,-178 -178,-178 -98.256,0 -178,79.7439 -178,178"
       style="fill:#1a476f;fill-opacity:1;fill-rule:nonzero;stroke:#1a476f;stroke-width:69.816;stroke-linecap:butt;stroke-linejoin:miter;stroke-miterlimit:10;stroke-dasharray:none;stroke-opacity:1"
       id="path62" /><path
       d="M 3158,3158 V 22457"
       style="fill:none;stroke:#000000;stroke-width:46.544;stroke-linecap:butt;stroke-linejoin:miter;stroke-miterlimit:10;stroke-dasharray:none;stroke-opacity:1"
       id="path64" /><path
       d="M 3158,3670 H 2835"
       style="fill:none;stroke:#000000;stroke-width:46.544;stroke-linecap:butt;stroke-linejoin:miter;stroke-miterlimit:10;stroke-dasharray:none;stroke-opacity:1"
       id="path66" /><g
       id="g68" /><g
       id="g70"><text
         transform="matrix(0,1,1,0,2431,3159.748)"
         style="font-variant:normal;font-weight:normal;font-size:808px;font-family:'Google Sans';-inkscape-font-specification:GoogleSans-Regular;writing-mode:lr-tb;fill:#000000;fill-opacity:1;fill-rule:nonzero;stroke:none"
         id="text74"><tspan
           x="0 192.304 713.46399"
           y="0"
           sodipodi:role="line"
           id="tspan72">.01</tspan></text></g><path
       d="M 3158,7134 H 2835"
       style="fill:none;stroke:#000000;stroke-width:46.544;stroke-linecap:butt;stroke-linejoin:miter;stroke-miterlimit:10;stroke-dasharray:none;stroke-opacity:1"
       id="path76" /><g
       id="g78" /><g
       id="g80"><text
         transform="matrix(0,1,1,0,2431,6565.168)"
         style="font-variant:normal;font-weight:normal;font-size:808px;font-family:'Google Sans';-inkscape-font-specification:GoogleSans-Regular;writing-mode:lr-tb;fill:#000000;fill-opacity:1;fill-rule:nonzero;stroke:none"
         id="text84"><tspan
           x="0 192.304 713.46399"
           y="0"
           sodipodi:role="line"
           id="tspan82">.02</tspan></text></g><path
       d="M 3158,10599 H 2835"
       style="fill:none;stroke:#000000;stroke-width:46.544;stroke-linecap:butt;stroke-linejoin:miter;stroke-miterlimit:10;stroke-dasharray:none;stroke-opacity:1"
       id="path86" /><g
       id="g88" /><g
       id="g90"><text
         transform="matrix(0,1,1,0,2431,10026.128)"
         style="font-variant:normal;font-weight:normal;font-size:808px;font-family:'Google Sans';-inkscape-font-specification:GoogleSans-Regular;writing-mode:lr-tb;fill:#000000;fill-opacity:1;fill-rule:nonzero;stroke:none"
         id="text94"><tspan
           x="0 192.304 713.46399"
           y="0"
           sodipodi:role="line"
           id="tspan92">.03</tspan></text></g><path
       d="M 3158,14064 H 2835"
       style="fill:none;stroke:#000000;stroke-width:46.544;stroke-linecap:butt;stroke-linejoin:miter;stroke-miterlimit:10;stroke-dasharray:none;stroke-opacity:1"
       id="path96" /><g
       id="g98" /><g
       id="g100"><text
         transform="matrix(0,1,1,0,2431,13468.1)"
         style="font-variant:normal;font-weight:normal;font-size:808px;font-family:'Google Sans';-inkscape-font-specification:GoogleSans-Regular;writing-mode:lr-tb;fill:#000000;fill-opacity:1;fill-rule:nonzero;stroke:none"
         id="text104"><tspan
           x="0 192.304 713.46399"
           y="0"
           sodipodi:role="line"
           id="tspan102">.04</tspan></text></g><path
       d="M 3158,17529 H 2835"
       style="fill:none;stroke:#000000;stroke-width:46.544;stroke-linecap:butt;stroke-linejoin:miter;stroke-miterlimit:10;stroke-dasharray:none;stroke-opacity:1"
       id="path106" /><g
       id="g108" /><g
       id="g110"><text
         transform="matrix(0,1,1,0,2431,16944.816)"
         style="font-variant:normal;font-weight:normal;font-size:808px;font-family:'Google Sans';-inkscape-font-specification:GoogleSans-Regular;writing-mode:lr-tb;fill:#000000;fill-opacity:1;fill-rule:nonzero;stroke:none"
         id="text114"><tspan
           x="0 192.304 713.46399"
           y="0"
           sodipodi:role="line"
           id="tspan112">.05</tspan></text></g><path
       d="M 3158,20993 H 2835"
       style="fill:none;stroke:#000000;stroke-width:46.544;stroke-linecap:butt;stroke-linejoin:miter;stroke-miterlimit:10;stroke-dasharray:none;stroke-opacity:1"
       id="path116" /><g
       id="g118" /><g
       id="g120"><text
         transform="matrix(0,1,1,0,2431,20411.24)"
         style="font-variant:normal;font-weight:normal;font-size:808px;font-family:'Google Sans';-inkscape-font-specification:GoogleSans-Regular;writing-mode:lr-tb;fill:#000000;fill-opacity:1;fill-rule:nonzero;stroke:none"
         id="text124"><tspan
           x="0 192.304 713.46399"
           y="0"
           sodipodi:role="line"
           id="tspan122">.06</tspan></text></g><g
       id="g126" /><g
       id="g128"
       transform="translate(-59.902638,-522.19309)"><text
         transform="matrix(0,1,1,0,1542,12105.04)"
         style="font-variant:normal;font-weight:normal;font-size:808px;font-family:'Google Sans';-inkscape-font-specification:GoogleSans-Regular;writing-mode:lr-tb;fill:#000000;fill-opacity:1;fill-rule:nonzero;stroke:none"
         id="text132"><tspan
           sodipodi:role="line"
           x="0"
           y="0"
           id="tspan2799">通婚率</tspan></text></g><path
       d="M 3158,3158 H 31184"
       style="fill:none;stroke:#000000;stroke-width:46.544;stroke-linecap:butt;stroke-linejoin:miter;stroke-miterlimit:10;stroke-dasharray:none;stroke-opacity:1"
       id="path134" /><path
       d="M 3670,3158 V 2835"
       style="fill:none;stroke:#000000;stroke-width:46.544;stroke-linecap:butt;stroke-linejoin:miter;stroke-miterlimit:10;stroke-dasharray:none;stroke-opacity:1"
       id="path136" /><g
       id="g138" /><g
       id="g140"><text
         transform="matrix(1,0,0,-1,2836.5479,2107)"
         style="font-variant:normal;font-weight:normal;font-size:808px;font-family:'Google Sans';-inkscape-font-specification:GoogleSans-Regular;writing-mode:lr-tb;fill:#000000;fill-opacity:1;fill-rule:nonzero;stroke:none"
         id="text144"><tspan
           x="0 307.04001 757.09601 1212"
           y="0"
           sodipodi:role="line"
           id="tspan142">1955</tspan></text></g><path
       d="M 10420,3158 V 2835"
       style="fill:none;stroke:#000000;stroke-width:46.544;stroke-linecap:butt;stroke-linejoin:miter;stroke-miterlimit:10;stroke-dasharray:none;stroke-opacity:1"
       id="path146" /><g
       id="g148" /><g
       id="g150"><text
         transform="matrix(1,0,0,-1,9555.8438,2107)"
         style="font-variant:normal;font-weight:normal;font-size:808px;font-family:'Google Sans';-inkscape-font-specification:GoogleSans-Regular;writing-mode:lr-tb;fill:#000000;fill-opacity:1;fill-rule:nonzero;stroke:none"
         id="text154"><tspan
           x="0 307.04001 757.09601 1207.152"
           y="0"
           sodipodi:role="line"
           id="tspan152">1960</tspan></text></g><path
       d="M 17171,3158 V 2835"
       style="fill:none;stroke:#000000;stroke-width:46.544;stroke-linecap:butt;stroke-linejoin:miter;stroke-miterlimit:10;stroke-dasharray:none;stroke-opacity:1"
       id="path156" /><g
       id="g158" /><g
       id="g160"><text
         transform="matrix(1,0,0,-1,16339.972,2107)"
         style="font-variant:normal;font-weight:normal;font-size:808px;font-family:'Google Sans';-inkscape-font-specification:GoogleSans-Regular;writing-mode:lr-tb;fill:#000000;fill-opacity:1;fill-rule:nonzero;stroke:none"
         id="text164"><tspan
           x="0 307.04001 757.09601 1207.152"
           y="0"
           sodipodi:role="line"
           id="tspan162">1965</tspan></text></g><path
       d="M 23922,3158 V 2835"
       style="fill:none;stroke:#000000;stroke-width:46.544;stroke-linecap:butt;stroke-linejoin:miter;stroke-miterlimit:10;stroke-dasharray:none;stroke-opacity:1"
       id="path166" /><g
       id="g168" /><g
       id="g170"><text
         transform="matrix(1,0,0,-1,23069.156,2107)"
         style="font-variant:normal;font-weight:normal;font-size:808px;font-family:'Google Sans';-inkscape-font-specification:GoogleSans-Regular;writing-mode:lr-tb;fill:#000000;fill-opacity:1;fill-rule:nonzero;stroke:none"
         id="text174"><tspan
           x="0 307.04001 757.09601 1184.528"
           y="0"
           sodipodi:role="line"
           id="tspan172">1970</tspan></text></g><path
       d="M 30672,3158 V 2835"
       style="fill:none;stroke:#000000;stroke-width:46.544;stroke-linecap:butt;stroke-linejoin:miter;stroke-miterlimit:10;stroke-dasharray:none;stroke-opacity:1"
       id="path176" /><g
       id="g178" /><g
       id="g180"><text
         transform="matrix(1,0,0,-1,29852.283,2107)"
         style="font-variant:normal;font-weight:normal;font-size:808px;font-family:'Google Sans';-inkscape-font-specification:GoogleSans-Regular;writing-mode:lr-tb;fill:#000000;fill-opacity:1;fill-rule:nonzero;stroke:none"
         id="text184"><tspan
           x="0 307.04001 757.09601 1184.528"
           y="0"
           sodipodi:role="line"
           id="tspan182">1975</tspan></text></g><g
       id="g186" /><g
       id="g188"
       transform="translate(-59.155028,-139.24673)"><text
         transform="matrix(1,0,0,-1,16468.039,1218)"
         style="font-variant:normal;font-weight:normal;font-size:808px;font-family:'Google Sans';-inkscape-font-specification:GoogleSans-Regular;writing-mode:lr-tb;fill:#000000;fill-opacity:1;fill-rule:nonzero;stroke:none"
         id="text192"><tspan
           sodipodi:role="line"
           id="tspan190"
           x="0"
           y="0">出生年</tspan></text></g><text
       xml:space="preserve"
       style="font-style:normal;font-weight:normal;font-size:969.305px;line-height:1.25;font-family:sans-serif;fill:#d35070;fill-opacity:1;stroke:none;stroke-width:60.5816"
       x="11847.099"
       y="-3358.5574"
       id="text5984"
       transform="scale(1,-1)"><tspan
         sodipodi:role="line"
         id="tspan5982"
         style="font-style:normal;font-variant:normal;font-weight:normal;font-stretch:normal;font-size:969.305px;font-family:'Google Sans';-inkscape-font-specification:'Google Sans';fill:#d35070;fill-opacity:1;stroke-width:60.5816"
         x="11847.099"
         y="-3358.5574">1961</tspan></text></g></svg>
